<svg xmlns="http://www.w3.org/2000/svg" width="129.042" height="62.166" viewBox="0 0 172.042 83.166">
  <g id="Group_68" data-name="Group 68" transform="translate(4398.566 -5850)">
    <rect id="Rectangle_69" data-name="Rectangle 69" width="91.043" height="67.544" transform="translate(-4385.308 5860.412)" fill="#0069b4"/>
    <path id="Path_194" data-name="Path 194" d="M148.532,50.674V39.079h-9.7V79.33h7.042V50.674Z" transform="translate(-4426.352 5834.979)" fill="#0069b4"/>
    <path id="Path_195" data-name="Path 195" d="M190.4,55.33a10.736,10.736,0,0,0-1.889-3.792,8.75,8.75,0,0,0-3.323-2.546,11.879,11.879,0,0,0-4.919-.928,15.494,15.494,0,0,0-4.5.717,10.171,10.171,0,0,0-4.067,2.306l-.372-2.757h-8.22v1.69a8.3,8.3,0,0,1,1.578,1.518,10.782,10.782,0,0,1,1.889,3.792,17.04,17.04,0,0,1,.611,4.614V76.069h4.779V59.2a3.5,3.5,0,0,1,.664-1.91,5.534,5.534,0,0,1,1.512-1.433,7.578,7.578,0,0,1,1.961-.9,7.169,7.169,0,0,1,2.069-.319,3.293,3.293,0,0,1,3.076,1.512,6.983,6.983,0,0,1,.9,3.634V76.069h8.857V59.944A16.985,16.985,0,0,0,190.4,55.33Z" transform="translate(-4417.537 5838.241)" fill="#0069b4"/>
    <path id="Path_196" data-name="Path 196" d="M172.106,55.33a10.737,10.737,0,0,0-1.889-3.792,8.26,8.26,0,0,0-1.578-1.518,9.494,9.494,0,0,0-1.745-1.028,11.879,11.879,0,0,0-4.919-.928,15.5,15.5,0,0,0-4.5.717,10.171,10.171,0,0,0-4.067,2.306l-.371-2.757H144.82V76.069h8.857V59.2a3.5,3.5,0,0,1,.664-1.91,5.553,5.553,0,0,1,1.512-1.433,7.6,7.6,0,0,1,1.961-.9,7.17,7.17,0,0,1,2.069-.319,3.292,3.292,0,0,1,3.076,1.512,6.97,6.97,0,0,1,.9,3.634V76.069h8.857V59.944A16.987,16.987,0,0,0,172.106,55.33Z" transform="translate(-4424.179 5838.241)" fill="#0069b4"/>
    <g id="Group_65" data-name="Group 65" transform="translate(-4298.737 5850)">
      <path id="Path_197" data-name="Path 197" d="M143.508,42.822h-.038a.951.951,0,0,1-.966-.9c-.668-7.6-1.056-11.368-1.478-18.542-2.106.2-4.231.42-6.293.637q-1.552.164-3.1.324a.934.934,0,0,1-.191-1.858q1.55-.159,3.1-.323c2.388-.252,4.856-.511,7.292-.729a.879.879,0,0,1,.33.027h0a.541.541,0,0,1,.067.02h0a.921.921,0,0,1,.386.259h0a.932.932,0,0,1,.1.132h0a.932.932,0,0,1,.134.4h0l0,.055c.282,7.509,1.225,11.928,1.514,19.524A.935.935,0,0,1,143.508,42.822Z" transform="translate(-130.602 -21.428)" fill="#00a4e8"/>
    </g>
    <g id="Group_66" data-name="Group 66" transform="translate(-4398.566 5874.014)">
      <path id="Path_198" data-name="Path 198" d="M62.75,68.34a.846.846,0,0,1-.943-.627l-.23-1.424c-1.4-8.635-2.843-17.564-4.208-26.374a.809.809,0,0,1,.771-.859.855.855,0,0,1,1,.626c1.363,8.805,2.809,17.731,4.206,26.363l.23,1.426a.809.809,0,0,1-.766.863Z" transform="translate(-57.361 -39.046)" fill="#00a4e8"/>
    </g>
    <path id="Path_199" data-name="Path 199" d="M164.265,91.076,163.3,25.883a.524.524,0,0,0-.3-.463,1.076,1.076,0,0,0-.7-.15L108.94,30.313,70.012,34.02l-9.173.845a1.115,1.115,0,0,0-.627.286.519.519,0,0,0-.2.5l10,56.851.652,3.724h-.005l.6,3.42.345,1.974h.007l.187,1.041c.041.327.468.572.964.532h.055L99,100.213l61.235-6.965,3.191-.368c.5-.068.84-.368.84-.709l-.016-1.093Zm-4.03.836-72.93,8.3L73.534,101.78l-.275-1.567-.743-4.2H72.5l-2.49-14.208L61.957,36.092l8.055-.75,52.94-5.03,38.505-3.653.867,58.734h0l.056,6.259Z" transform="translate(-4454.971 5829.964)" fill="#00a4e8"/>
    <g id="Group_67" data-name="Group 67" transform="translate(-4381.625 5873.997)">
      <path id="Path_200" data-name="Path 200" d="M108.528,79.066a11.871,11.871,0,0,1-2.085-.736,13.5,13.5,0,0,1-4.294-3.026,15.254,15.254,0,0,1-3-4.634,14.941,14.941,0,0,1-1.118-5.806,14.243,14.243,0,0,1,1.118-5.616,15.956,15.956,0,0,1,1.131-2.14L94.066,39.034H84.321L69.791,79.216h9.718l2.453-6.365H96.424l2.467,6.365h9.7ZM84.539,65.8,88.546,52.6l.654-3.844.613,3.844L93.848,65.8Z" transform="translate(-69.791 -39.034)" fill="#fff"/>
      <path id="Path_201" data-name="Path 201" d="M119.041,54.579a15.111,15.111,0,0,1,1.935-1.677V39.054h-9.146v12.7a14.139,14.139,0,0,0-3.189-1.118,14.728,14.728,0,0,0-3.176-.354,13.339,13.339,0,0,0-5.479,1.145A14.2,14.2,0,0,0,95.5,54.579,13.853,13.853,0,0,0,93.58,57.1a14.467,14.467,0,0,0-1.118,2.14,14.017,14.017,0,0,0-1.131,5.616,14.7,14.7,0,0,0,1.131,5.806A14.968,14.968,0,0,0,95.447,75.3a13.5,13.5,0,0,0,4.294,3.026,11.627,11.627,0,0,0,2.1.736,12.071,12.071,0,0,0,2.971.368,13.952,13.952,0,0,0,4.13-.641,10.866,10.866,0,0,0,3.871-2.167l.327,2.59h7.837V77.014a14.066,14.066,0,0,1-1.99-1.717,14.973,14.973,0,0,1-4.116-10.441,14.487,14.487,0,0,1,1.118-5.616A15.267,15.267,0,0,1,119.041,54.579ZM111.831,71.7a11.732,11.732,0,0,1-1.758.668,7.39,7.39,0,0,1-2.031.273,7.289,7.289,0,0,1-5.479-2.14,7.733,7.733,0,0,1-2.085-5.67,7.722,7.722,0,0,1,2.085-5.629,7.331,7.331,0,0,1,5.479-2.126,8.661,8.661,0,0,1,1.922.218,10.308,10.308,0,0,1,1.867.6Z" transform="translate(-61.972 -39.027)" fill="#fff"/>
      <path id="Path_202" data-name="Path 202" d="M129.921,39.054v12.7a14.274,14.274,0,0,0-3.176-1.118,14.852,14.852,0,0,0-3.189-.354,13.386,13.386,0,0,0-5.479,1.145,15.7,15.7,0,0,0-2.549,1.472,16.1,16.1,0,0,0-1.935,1.677,15.229,15.229,0,0,0-3.04,4.662,14.254,14.254,0,0,0-1.131,5.616,14.948,14.948,0,0,0,1.131,5.806,15.219,15.219,0,0,0,2.985,4.634,14.869,14.869,0,0,0,1.99,1.717,13.729,13.729,0,0,0,2.317,1.308,12.076,12.076,0,0,0,5.057,1.1,13.973,13.973,0,0,0,4.144-.641,10.982,10.982,0,0,0,3.871-2.167l.327,2.59h7.837V39.054Zm0,32.644a12.151,12.151,0,0,1-1.745.668,7.463,7.463,0,0,1-2.031.273,7.248,7.248,0,0,1-5.479-2.14,7.678,7.678,0,0,1-2.085-5.67,7.666,7.666,0,0,1,2.085-5.629,7.289,7.289,0,0,1,5.479-2.126,8.544,8.544,0,0,1,1.908.218,9.975,9.975,0,0,1,1.867.6Z" transform="translate(-55.405 -39.027)" fill="#fff"/>
    </g>
  </g>
</svg>
