<svg xmlns="http://www.w3.org/2000/svg" width="140.097" height="113.533" viewBox="0 0 140.097 113.533">
  <g id="Group_2" data-name="Group 2" transform="translate(0 0)">
    <path id="Path_5" data-name="Path 5" d="M98.309,88.386c-6.095,0-12.243-.065-18.338,0a2.35,2.35,0,0,1-2.292-2.292c.065-3.781.771-2.292,4.584-2.292,10.853,0,21.238.033,32.091,0,11.929-.033,20.891-11.026,20.63-22.922a19.431,19.431,0,0,0-13.753-18.338,3.046,3.046,0,0,1-2.292-2.292c-1.532-12.255-13.025-20.065-25.215-18.338-4.009.587-8.235-.152-11.461,2.292-.978.717-1.9.978-2.292,0C74.952,11.948,63.438,5.7,50.172,5.865c-15.319.228-28.1,12.286-29.8,27.507a21.168,21.168,0,0,0,0,6.877c.2,1.076.913,2,0,2.292-9,2.77-16.013,11.374-16.046,20.63A20.675,20.675,0,0,0,24.957,83.8c11.636.065,22.748.065,34.384,0a2.036,2.036,0,0,1,2.292,2.292c-.1,3.357,1.1,2.292-2.292,2.292H27.25C11.736,88.386-1.3,76.328-.257,60.879.395,51.166,4.859,44.812,13.5,40.249c.945-.489,2.292-1.184,2.292-2.292C15.756,19.281,27.271,4.6,45.588,1.28A36.461,36.461,0,0,1,82.264,17.326c.88,1.369.76.619,2.292,0,16-6.388,34.438,3.943,38.968,20.63.261,1.01,1.314-.489,2.292,0,10.039,4.791,15.09,16.98,13.754,27.507-1.5,11.831-9.255,20.739-20.63,22.922-2.575.489-4.269,0-6.877,0C107.5,88.353,102.872,88.386,98.309,88.386Z" transform="translate(0.316 -0.734)" fill="#0069b4"/>
    <path id="Path_6" data-name="Path 6" d="M166.558,154.877c-5.443,5.476-11.026,10.9-16.046,16.046-1.01,1.01-1.249,1.141-2.292,0-2.575-2.77-2.64-1.945,0-4.585,6.551-6.551,11.787-14.014,18.338-20.63.815-.815,1.315-.978,2.292,0,7.105,7.2,15.752,15.817,22.922,22.922.782.782.913-.75,0,0-1.043.847-3.411,4.584-4.585,4.584s-1.347-3.639-2.292-4.584c-4.2-4.172-7.289-7.289-11.461-11.461l-2.292-2.292c-.456.619,0,1.738,0,2.292,0,17.8-.065,37.218,0,55.014,0,1.467-.793.065-2.292,0-3.39-.1-2.292,1.065-2.292-2.292V157.169C166.493,156.713,166.558,155.985,166.558,154.877Z" transform="translate(-97.732 -99.317)" fill="#0069b4"/>
  </g>
</svg>
